<svg width="16" height="16" viewBox="0 0 16 16" fill="none" xmlns="http://www.w3.org/2000/svg">
<rect width="16" height="16" fill="#140029"/>
<path d="M7.02273 6.94118C6.92898 6.65425 6.8054 6.39714 6.65199 6.16987C6.50142 5.93976 6.32102 5.74373 6.1108 5.5818C5.90341 5.41987 5.66761 5.29629 5.40341 5.21106C5.1392 5.12584 4.84943 5.08322 4.53409 5.08322C4.01705 5.08322 3.54688 5.21675 3.12358 5.48379C2.70028 5.75084 2.36364 6.1443 2.11364 6.66419C1.86364 7.18408 1.73864 7.82186 1.73864 8.57754C1.73864 9.33322 1.86506 9.97101 2.1179 10.4909C2.37074 11.0108 2.71307 11.4042 3.14489 11.6713C3.5767 11.9383 4.0625 12.0719 4.60227 12.0719C5.10227 12.0719 5.54261 11.9653 5.9233 11.7523C6.30682 11.5363 6.60511 11.2324 6.81818 10.8403C7.03409 10.4454 7.14205 9.98095 7.14205 9.44686L7.46591 9.51504H4.84091V8.57754H8.16477V9.51504C8.16477 10.2338 8.01136 10.8588 7.70455 11.39C7.40057 11.9213 6.98011 12.3332 6.44318 12.6258C5.90909 12.9156 5.29545 13.0605 4.60227 13.0605C3.82955 13.0605 3.15057 12.8787 2.56534 12.515C1.98295 12.1514 1.52841 11.6344 1.2017 10.9639C0.877841 10.2935 0.715909 9.498 0.715909 8.57754C0.715909 7.8872 0.808239 7.26646 0.992898 6.71532C1.1804 6.16135 1.4446 5.68976 1.78551 5.30055C2.12642 4.91135 2.52983 4.61305 2.99574 4.40567C3.46165 4.19828 3.97443 4.09459 4.53409 4.09459C4.99432 4.09459 5.4233 4.16419 5.82102 4.30339C6.22159 4.43976 6.57812 4.63436 6.89062 4.8872C7.20597 5.1372 7.46875 5.43692 7.67898 5.78635C7.8892 6.13294 8.03409 6.51788 8.11364 6.94118H7.02273Z" fill="#7A6AA9" fill-opacity="0.933333"/>
<path d="M9.05682 12.9412V4.2139H12.0057C12.6875 4.2139 13.2472 4.33038 13.6847 4.56334C14.1222 4.79345 14.446 5.11021 14.6562 5.51362C14.8665 5.91703 14.9716 6.37584 14.9716 6.89004C14.9716 7.40425 14.8665 7.86021 14.6562 8.25794C14.446 8.65567 14.1236 8.96817 13.6889 9.19544C13.2543 9.41987 12.6989 9.53209 12.0227 9.53209H9.63636V8.57754H11.9886C12.4545 8.57754 12.8295 8.50936 13.1136 8.373C13.4006 8.23663 13.608 8.04345 13.7358 7.79345C13.8665 7.54061 13.9318 7.23947 13.9318 6.89004C13.9318 6.54061 13.8665 6.23521 13.7358 5.97385C13.6051 5.71248 13.3963 5.51078 13.1094 5.36873C12.8224 5.22385 12.4432 5.1514 11.9716 5.1514H10.1136V12.9412H9.05682ZM13.1648 9.02072L15.3125 12.9412H14.0852L11.9716 9.02072H13.1648Z" fill="#989EDE"/>
</svg>
