<svg width="72" height="39" viewBox="0 0 72 39" fill="none" xmlns="http://www.w3.org/2000/svg">
<path d="M25.8462 6.61072C24.8577 9.33665 21.9813 8.82909 20.6667 8.23456C21.1857 10.996 22.6747 11.6154 23.3543 11.5799H24.9916C28.6739 10.4299 29.6013 7.87668 29.6048 6.74383V4.7828C28.9622 1.41088 25.17 0.189301 23.3543 0H20.018C16.9782 0.298148 15.065 1.46116 14.4883 2.0054C11.6133 4.14923 10.7573 7.45371 10.6886 8.83797V10.941C11.1087 13.2481 14.9483 17.9007 16.8155 19.9387C17.8947 20.7124 19.5512 23.9347 20.2445 25.4491V28.4483C19.396 33.602 15.6141 34.9792 13.8293 35.0236H11.9243C8.30787 34.4627 7.15663 31.6842 7.03306 30.365V28.9009C7.63442 25.0533 10.5444 24.334 11.9243 24.4553C13.2588 24.6895 14.5535 26.1738 15.0341 26.8866V24.8013C14.3421 22.0754 11.2515 21.4353 9.79274 21.456H7.60971C1.83498 22.5066 0.130433 27.0404 0 29.1759V30.7111C0.617838 37.4407 8.20695 38.8983 11.9243 38.7859C22.4934 38.431 25.7055 31.2908 25.9904 27.7651V25.4491C25.9492 22.4037 23.9756 19.0454 22.9939 17.7469L20.6667 14.9429C18.393 12.3235 17.3441 9.78151 17.1038 8.83797V8.23456C17.1368 3.89011 20.0077 2.94006 21.439 3.00809C24.2893 2.85192 25.5648 4.42193 25.8462 5.22646V6.61072Z" fill="#00B6F3"/>
<path d="M29.1178 24.7801C31.4335 18.6606 36.4223 14.8776 40.2603 16.3299C44.0981 17.7825 45.3318 23.9204 43.0162 30.0399C40.7006 36.1593 35.7126 39.9429 31.8746 38.491C28.0365 37.0387 26.8021 30.8998 29.1178 24.7801ZM37.9888 18.95C36.3261 18.5637 34.1055 22.0079 33.0289 26.6424C31.9524 31.2767 32.4277 35.347 34.0904 35.7332C35.7531 36.1188 37.9738 32.6749 39.0504 28.0408C40.127 23.4064 39.6516 19.3363 37.9888 18.95Z" fill="#00B6F3"/>
<circle cx="66.3524" cy="15.5336" r="2.72496" fill="#00B6F3"/>
<path d="M59.035 5.43165C64.5156 5.18288 62.4607 12.9061 60.7479 16.7988C57.0757 23.1351 53.573 26.3427 50.8602 27.8115C50.3282 29.8498 49.8865 34.0514 52.3778 34.5498C54.8691 35.0481 58.4502 30.9945 59.9295 28.9053L62.9276 19.9522C63.6282 19.6797 65.2707 19.1963 66.2362 19.4453C67.4429 19.7567 67.4815 19.9909 67.5594 20.458C67.6371 20.9255 65.8077 26.5697 65.0291 28.9053C64.2507 31.2407 63.9006 34.0044 65.0291 34.5498C65.932 34.9857 67.2997 33.8886 67.8709 33.2852C70.4402 30.5797 70.8496 29.6643 71.4529 30.0147C71.9352 30.295 71.654 31.3897 71.4529 31.9024C70.9858 33.7709 66.1586 39.6104 61.5262 38.5596C57.8203 37.7188 58.4769 34.083 59.2684 32.3701C58.0096 34.6929 54.2462 39.221 49.2635 38.7539C44.2809 38.2866 44.9295 31.9974 45.8768 28.9111C40.2764 30.0598 39.6354 26.5463 40.0379 24.584L43.8524 24.1953L44.1639 26.0635C45.7822 26.0635 46.3432 25.597 46.4217 25.3633C47.8231 20.2248 52.1836 5.74307 59.035 5.43165ZM59.4696 8.37794L59.242 8.41895C58.7464 8.53954 58.2848 8.83659 57.8621 9.22462C57.4368 9.61518 57.0249 10.1218 56.6297 10.7031C55.8395 11.8656 55.0804 13.3797 54.3865 15.0039C52.9974 18.2557 51.8375 22.0265 51.1932 24.5078L51.0311 25.1328H51.6776C51.8551 25.1327 51.9967 25.053 52.0672 25.0088C52.1531 24.9549 52.2375 24.8857 52.3153 24.8145C52.4721 24.6707 52.6526 24.4727 52.8475 24.2393C53.2401 23.7688 53.7301 23.1073 54.2684 22.3281C55.3467 20.7673 56.6433 18.7003 57.786 16.6631C58.9241 14.6338 59.9281 12.6021 60.4031 11.1211C60.5227 10.7485 60.6122 10.3995 60.661 10.0869C60.7087 9.78028 60.7227 9.47553 60.6649 9.20704C60.605 8.92928 60.4556 8.64572 60.1522 8.48536C59.9373 8.37195 59.7002 8.35095 59.4696 8.37794Z" fill="#00B6F3"/>
</svg>
